<svg width="89" height="36" viewBox="0 0 89 36" fill="none" xmlns="http://www.w3.org/2000/svg">
<path d="M40.856 22.64H48.104V26H36.2V22.88L43.4 12.512H36.2V9.152H48.104V12.272L40.856 22.64ZM49.9689 19.28C49.9689 17.904 50.2249 16.696 50.7369 15.656C51.2649 14.616 51.9769 13.816 52.8729 13.256C53.7689 12.696 54.7689 12.416 55.8729 12.416C56.8169 12.416 57.6409 12.608 58.3449 12.992C59.0649 13.376 59.6169 13.88 60.0009 14.504V12.608H64.1049V26H60.0009V24.104C59.6009 24.728 59.0409 25.232 58.3209 25.616C57.6169 26 56.7929 26.192 55.8489 26.192C54.7609 26.192 53.7689 25.912 52.8729 25.352C51.9769 24.776 51.2649 23.968 50.7369 22.928C50.2249 21.872 49.9689 20.656 49.9689 19.28ZM60.0009 19.304C60.0009 18.28 59.7129 17.472 59.1369 16.88C58.5769 16.288 57.8889 15.992 57.0729 15.992C56.2569 15.992 55.5609 16.288 54.9849 16.88C54.4249 17.456 54.1449 18.256 54.1449 19.28C54.1449 20.304 54.4249 21.12 54.9849 21.728C55.5609 22.32 56.2569 22.616 57.0729 22.616C57.8889 22.616 58.5769 22.32 59.1369 21.728C59.7129 21.136 60.0009 20.328 60.0009 19.304ZM69.1379 11.216C68.4179 11.216 67.8259 11.008 67.3619 10.592C66.9139 10.16 66.6899 9.632 66.6899 9.008C66.6899 8.368 66.9139 7.84 67.3619 7.424C67.8259 6.992 68.4179 6.776 69.1379 6.776C69.8419 6.776 70.4179 6.992 70.8659 7.424C71.3299 7.84 71.5619 8.368 71.5619 9.008C71.5619 9.632 71.3299 10.16 70.8659 10.592C70.4179 11.008 69.8419 11.216 69.1379 11.216ZM71.1779 12.608V26H67.0739V12.608H71.1779ZM82.3121 12.464C83.8801 12.464 85.1281 12.976 86.0561 14C87.0001 15.008 87.4721 16.4 87.4721 18.176V26H83.3921V18.728C83.3921 17.832 83.1601 17.136 82.6961 16.64C82.2321 16.144 81.6081 15.896 80.8241 15.896C80.0401 15.896 79.4161 16.144 78.9521 16.64C78.4881 17.136 78.2561 17.832 78.2561 18.728V26H74.1521V12.608H78.2561V14.384C78.6721 13.792 79.2321 13.328 79.9361 12.992C80.6401 12.64 81.4321 12.464 82.3121 12.464Z" fill="white"/>
<path d="M16.0354 10.0845C15.5067 9.85788 14.8942 10.1028 14.6676 10.6316L8.41748 25.2152C8.19081 25.744 8.43582 26.3564 8.96458 26.583C9.49355 26.8097 10.1059 26.5646 10.3324 26.0359L16.5825 11.4523C16.8092 10.9235 16.5642 10.3111 16.0354 10.0845ZM7.06329 13.5162C6.70383 13.067 6.04819 12.9942 5.59916 13.3536L0.390712 17.5203C-0.130064 17.9368 -0.130411 18.7304 0.390712 19.1472L5.59916 23.3139C6.0484 23.6734 6.70404 23.6005 7.06329 23.1513C7.42267 22.702 7.34989 22.0465 6.90057 21.6872L2.70896 18.3338L6.90057 14.9804C7.34989 14.621 7.42267 13.9655 7.06329 13.5162ZM24.6093 17.5203L19.4008 13.3536C18.9516 12.9941 18.296 13.067 17.9367 13.5162C17.5773 13.9655 17.6501 14.621 18.0994 14.9804L22.291 18.3338L18.0994 21.6871C17.6501 22.0465 17.5773 22.702 17.9367 23.1512C18.2966 23.601 18.9522 23.6729 19.4008 23.3139L24.6093 19.1471C25.1301 18.7306 25.1304 17.9372 24.6093 17.5203Z" fill="white"/>
</svg>
