<svg width="116" height="48" viewBox="0 0 116 48" fill="none" xmlns="http://www.w3.org/2000/svg">
<rect width="116" height="48" rx="6" fill="#111111"/>
<path d="M54.856 28.64H62.104V32H50.2V28.88L57.4 18.512H50.2V15.152H62.104V18.272L54.856 28.64ZM63.9689 25.28C63.9689 23.904 64.2249 22.696 64.7369 21.656C65.2649 20.616 65.9769 19.816 66.8729 19.256C67.7689 18.696 68.7689 18.416 69.8729 18.416C70.8169 18.416 71.6409 18.608 72.3449 18.992C73.0649 19.376 73.6169 19.88 74.0009 20.504V18.608H78.1049V32H74.0009V30.104C73.6009 30.728 73.0409 31.232 72.3209 31.616C71.6169 32 70.7929 32.192 69.8489 32.192C68.7609 32.192 67.7689 31.912 66.8729 31.352C65.9769 30.776 65.2649 29.968 64.7369 28.928C64.2249 27.872 63.9689 26.656 63.9689 25.28ZM74.0009 25.304C74.0009 24.28 73.7129 23.472 73.1369 22.88C72.5769 22.288 71.8889 21.992 71.0729 21.992C70.2569 21.992 69.5609 22.288 68.9849 22.88C68.4249 23.456 68.1449 24.256 68.1449 25.28C68.1449 26.304 68.4249 27.12 68.9849 27.728C69.5609 28.32 70.2569 28.616 71.0729 28.616C71.8889 28.616 72.5769 28.32 73.1369 27.728C73.7129 27.136 74.0009 26.328 74.0009 25.304ZM83.1379 17.216C82.4179 17.216 81.8259 17.008 81.3619 16.592C80.9139 16.16 80.6899 15.632 80.6899 15.008C80.6899 14.368 80.9139 13.84 81.3619 13.424C81.8259 12.992 82.4179 12.776 83.1379 12.776C83.8419 12.776 84.4179 12.992 84.8659 13.424C85.3299 13.84 85.5619 14.368 85.5619 15.008C85.5619 15.632 85.3299 16.16 84.8659 16.592C84.4179 17.008 83.8419 17.216 83.1379 17.216ZM85.1779 18.608V32H81.0739V18.608H85.1779ZM96.3121 18.464C97.8801 18.464 99.1281 18.976 100.056 20C101 21.008 101.472 22.4 101.472 24.176V32H97.3921V24.728C97.3921 23.832 97.1601 23.136 96.6961 22.64C96.2321 22.144 95.6081 21.896 94.8241 21.896C94.0401 21.896 93.4161 22.144 92.9521 22.64C92.4881 23.136 92.2561 23.832 92.2561 24.728V32H88.1521V18.608H92.2561V20.384C92.6721 19.792 93.2321 19.328 93.9361 18.992C94.6401 18.64 95.4321 18.464 96.3121 18.464Z" fill="white"/>
<path d="M30.0354 16.0845C29.5067 15.8579 28.8942 16.1028 28.6676 16.6316L22.4175 31.2152C22.1908 31.744 22.4358 32.3564 22.9646 32.583C23.4935 32.8097 24.1059 32.5646 24.3324 32.0359L30.5825 17.4523C30.8092 16.9235 30.5642 16.3111 30.0354 16.0845ZM21.0633 19.5162C20.7038 19.067 20.0482 18.9942 19.5992 19.3536L14.3907 23.5203C13.8699 23.9368 13.8696 24.7304 14.3907 25.1472L19.5992 29.3139C20.0484 29.6734 20.704 29.6005 21.0633 29.1513C21.4227 28.702 21.3499 28.0465 20.9006 27.6872L16.709 24.3338L20.9006 20.9804C21.3499 20.621 21.4227 19.9655 21.0633 19.5162ZM38.6093 23.5203L33.4008 19.3536C32.9516 18.9941 32.296 19.067 31.9367 19.5162C31.5773 19.9655 31.6501 20.621 32.0994 20.9804L36.291 24.3338L32.0994 27.6871C31.6501 28.0465 31.5773 28.702 31.9367 29.1512C32.2966 29.601 32.9522 29.6729 33.4008 29.3139L38.6093 25.1471C39.1301 24.7306 39.1304 23.9372 38.6093 23.5203Z" fill="white"/>
</svg>
